#!OML:ASF E:\Steps\Project 1\Capture day 1\Session 2\Subject.ASF
:FULLY-SPECIFIED
:DEGREES
406
root 12.2583 18.8864 9.25852 -153.364 4.82912 174.437
lowerback -20.2416 -2.55056 -6.60556
upperback 2.427 -1.70951 0.19622
thorax 14.4552 -1.30702 3.44588
lowerneck -3.54652 -1.20938 -0.825977
upperneck 23.4745 0.0276034 0.769618
head 7.80166 0.644865 0.483665
rclavicle -1.31198e-014 3.77691e-015
rhumerus -35.8457 -14.4041 -77.9479
rradius 38.1569
rwrist -2.76534
rhand -8.91453 -411.637
rfingers 7.12502
rthumb 17.0287 -80.9111
lclavicle -1.31198e-014 3.77691e-015
lhumerus -25.5374 -0.26778 83.1583
lradius 26.3731
lwrist -1.17513
lhand -22.6279 -13.5859
lfingers 7.12502
lthumb 3.80242 16.36
rfemur -37.3359 10.2916 12.5364
rtibia 18.8267
rfoot -17.4498 -4.27749
rtoes -17.2869
lfemur -34.5436 -9.50167 -25.4904
ltibia 16.9019
lfoot -6.87824 -1.07657
ltoes -23.9216
407
root 12.2554 18.8974 9.21167 -153.441 4.89977 174.632
lowerback -20.4655 -2.50182 -6.32152
upperback 2.41324 -1.70829 0.245633
thorax 14.5607 -1.28873 3.33716
lowerneck -3.68295 -1.17819 -0.826904
upperneck 23.5242 0.050848 0.838117
head 7.84263 0.66027 0.50876
rclavicle 3.08116e-015 2.38542e-015
rhumerus -35.8384 -14.5494 -77.8999
rradius 38.4664
rwrist -3.0808
rhand -9.1268 -410.922
rfingers 7.12502
rthumb 16.8244 -80.2132
lclavicle 3.08116e-015 2.38542e-015
lhumerus -26.0555 -0.0196456 83.0824
lradius 25.7188
lwrist -1.08287
lhand -21.9335 -12.8534
lfingers 7.12502
lthumb 4.47302 17.0794
rfemur -36.7783 10.289 12.8074
rtibia 18.3392
rfoot -17.4454 -4.20107
rtoes -17.8753
lfemur -34.0436 -9.56194 -25.2869
ltibia 16.4756
lfoot -6.96027 -0.860205
ltoes -24.4765
408
root 12.2559 18.9024 9.17652 -153.164 4.93907 174.839
lowerback -20.8253 -2.56143 -6.07107
upperback 2.1368 -1.83555 0.33485
thorax 14.4511 -1.31677 3.25274
lowerneck -3.25468 -1.0911 -0.930074
upperneck 23.1827 0.134289 0.971861
head 7.65073 0.6979 0.572096
rclavicle 2.57426e-014 1.98785e-015
rhumerus -36.1427 -14.5588 -77.8163
rradius 38.7857
rwrist -3.31072
rhand -9.04316 -410.366
rfingers 7.12502
rthumb 16.9049 -79.6504
lclavicle 2.57426e-014 1.98785e-015
lhumerus -26.8299 0.548542 82.9178
lradius 24.8486
lwrist -1.39903
lhand -21.3934 -12.7353
lfingers 7.12502
lthumb 4.99449 17.1858
rfemur -36.752 10.2748 13.0231
rtibia 18.0494
rfoot -17.4484 -4.03149
rtoes -17.7327
lfemur -34.0893 -9.52002 -25.031
ltibia 16.2586
lfoot -6.96332 -0.836363
ltoes -23.9287
409
root 12.2595 18.9077 9.15011 -152.8 4.96603 174.926
lowerback -21.0948 -2.70057 -6.03476
upperback 1.79927 -2.01644 0.429757
thorax 14.2313 -1.38042 3.28145
lowerneck -2.68261 -0.983178 -0.918305
upperneck 22.588 0.224695 1.01113
head 7.35037 0.730667 0.580844
rclavicle 5.66536e-015 7.95139e-016
rhumerus -36.4322 -14.4711 -77.7561
rradius 39.1433
rwrist -3.62337
rhand -8.74524 -410.217
rfingers 7.12502
rthumb 17.1917 -79.4768
lclavicle 5.66536e-015 7.95139e-016
lhumerus -27.4892 1.32427 82.6901
lradius 23.8162
lwrist -2.14469
lhand -20.9333 -12.8202
lfingers 7.12502
lthumb 5.43875 17.09
rfemur -36.8592 10.2486 13.0601
rtibia 17.6907
rfoot -17.4061 -3.96329
rtoes -17.4535
lfemur -34.3405 -9.42066 -24.9029
ltibia 16.162
lfoot -6.92661 -0.964921
ltoes -22.797
410
root 12.2637 18.9187 9.11818 -152.654 5.06867 174.771
lowerback -21.2062 -2.6783 -6.29099
upperback 1.83348 -1.89277 0.3239
thorax 14.3307 -1.34036 3.34596
lowerneck -3.41783 -1.07357 -0.420706
upperneck 22.4449 -0.041611 0.991433
head 7.43498 0.611405 0.468225
rclavicle -6.36111e-015 2.34566e-014
rhumerus -36.0873 -15.1546 -77.8473
rradius 39.3872
rwrist -3.99652
rhand -8.62482 -409.974
rfingers 7.12502
rthumb 17.3076 -79.2237
lclavicle -6.36111e-015 2.34566e-014
lhumerus -27.2322 1.40536 82.4694
lradius 22.7134
lwrist -2.85247
lhand -20.5483 -12.6848
lfingers 7.12502
lthumb 5.81049 17.2155
rfemur -36.582 10.1445 12.8669
rtibia 16.9989
rfoot -17.1657 -3.88179
rtoes -17.4911
lfemur -34.2866 -9.37395 -25.1073
ltibia 15.9815
lfoot -6.89074 -1.02251
ltoes -22.3146
411
root 12.2609 18.9235 9.08224 -152.867 4.78993 175.147
lowerback -21.0258 -2.8118 -5.93235
upperback 1.64619 -2.21912 0.595387
thorax 14.035 -1.46388 3.34835
lowerneck -2.98704 -1.0489 -0.733167
upperneck 22.2475 0.00926882 1.0839
head 7.29363 0.619222 0.552764
rclavicle 1.17283e-014 1.53064e-014
rhumerus -36.2993 -14.8212 -77.668
rradius 39.49
rwrist -4.47181
rhand -8.73994 -410.006
rfingers 7.12502
rthumb 17.1968 -79.2649
lclavicle 1.17283e-014 1.53064e-014
lhumerus -27.9745 2.13795 82.3384
lradius 21.7368
lwrist -3.57807
lhand -20.1269 -12.5986
lfingers 7.12502
lthumb 6.21734 17.2902
rfemur -35.5347 9.89789 13.5867
rtibia 15.9567
rfoot -16.8828 -3.62863
rtoes -17.8313
lfemur -33.7556 -9.33972 -24.7377
ltibia 15.7546
lfoot -6.89073 -1.04819
ltoes -22.7153
412
root 12.2627 18.9287 9.04027 -152.903 4.9525 175.15
lowerback -21.1991 -2.8038 -5.96139
upperback 1.59382 -2.18256 0.578096
thorax 14.0708 -1.44566 3.35511
lowerneck -3.08767 -1.08131 -0.868348
upperneck 22.0356 -0.0985263 1.24346
head 7.24321 0.555097 0.616953
rclavicle 1.35174e-014 -1.17283e-014
rhumerus -36.2514 -14.9625 -77.6586
rradius 39.6511
rwrist -4.92573
rhand -8.71517 -410.735
rfingers 7.12502
rthumb 17.2206 -79.9923
lclavicle 1.35174e-014 -1.17283e-014
lhumerus -28.3141 2.41418 82.175
lradius 20.8039
lwrist -4.23712
lhand -19.7039 -12.0657
lfingers 7.12502
lthumb 6.62567 17.8107
rfemur -34.9601 9.68567 13.6859
rtibia 15.2095
rfoot -16.7282 -3.22791
rtoes -17.6417
lfemur -33.3963 -9.25462 -24.8013
ltibia 15.4743
lfoot -7.00527 -0.920309
ltoes -22.9506
413
root 12.2608 18.9362 9.00221 -152.766 5.20066 174.954
lowerback -21.6061 -2.85705 -6.13774
upperback 1.50412 -2.15314 0.476298
thorax 14.2029 -1.43512 3.34338
lowerneck -3.04913 -1.053 -0.842103
upperneck 21.7613 -0.100435 1.23429
head 7.14636 0.541436 0.605654
rclavicle 4.57205e-015 1.15295e-014
rhumerus -36.293 -15.0336 -77.7048
rradius 39.9757
rwrist -5.44618
rhand -8.4433 -411.058
rfingers 7.12502
rthumb 17.4823 -80.2922
lclavicle 4.57205e-015 1.15295e-014
lhumerus -28.682 2.76283 81.915
lradius 19.9648
lwrist -5.12633
lhand -19.2873 -11.3434
lfingers 7.12502
lthumb 7.0278 18.52
rfemur -34.7684 9.38653 13.4754
rtibia 14.7248
rfoot -16.6247 -2.71444
rtoes -16.7147
lfemur -33.2641 -9.28949 -25.0814
ltibia 15.213
lfoot -7.05918 -0.741473
ltoes -23.1501
414
root 12.2656 18.9372 8.96722 -152.807 5.08224 175.108
lowerback -21.7794 -2.94818 -6.05541
upperback 1.48241 -2.29182 0.542123
thorax 14.2929 -1.4957 3.32081
lowerneck -2.74251 -0.900434 -0.72877
upperneck 20.9264 0.00360065 1.22892
head 6.81911 0.564004 0.58117
rclavicle 5.76476e-015 -7.35503e-015
rhumerus -36.2442 -15.1319 -77.7393
rradius 40.1666
rwrist -5.82637
rhand -8.2362 -410.866
rfingers 7.12502
rthumb 17.6816 -80.0817
lclavicle 5.76476e-015 -7.35503e-015
lhumerus -28.9145 3.11614 81.6281
lradius 18.9739
lwrist -6.18686
lhand -19.1944 -11.4163
lfingers 7.12502
lthumb 7.11746 18.4441
rfemur -34.2893 9.46731 13.6893
rtibia 14.2261
rfoot -16.4852 -2.67278
rtoes -15.3637
lfemur -32.9862 -9.28179 -24.8868
ltibia 15.0179
lfoot -6.99288 -0.677674
ltoes -23.4241
